# xmcd
#
# Track frame offsets:
#	150
#	31785
#	52147
#	65582
#	81387
#	96632
#	117367
#	151082
#	169262
#	182000
#	208442
#	229330
#	256072
#
# Disc length: 4057 seconds
#
# Revision: 3
# Processed by: cddbd v1.5.2PL0 Copyright (c) Steve Scherf et al.
# Submitted via: audiograbber 1.83.01
#
DISCID=bb0fd70d
DTITLE=Various Artist - Bose Blues Collection
DYEAR=1999
DGENRE=Blues
TTITLE0=Harris, Gene and Niki - Down Home Blues
TTITLE1=Dukes of Dixieland - Yellow Dog Blues
TTITLE2=Thomas, Irma - I Won't Cry for You
TTITLE3=Boutte, John - All These Things that Make You Mine
TTITLE4=Reed, Dalton - I Guess You Didn't Love Me Enough
TTITLE5=Professor's Blues Review - Meet Me with Your Black Drawers On
TTITLE6=Hamilton, Jeff - The Real Blues - Ray Brown/Gene Harris
TTITLE7=Lynyrd Skynyrd - Heartbreak Hotel
TTITLE8=Magpie - Winnsboro Cotton Mill Blues
TTITLE9=Hamilton, Jeff - Please Send Me Someone to Love - Ernestine Anderson/Ra
TTITLE9=y Brown/Monty Alexander
TTITLE10=Adams, Johnny - This Time I'm Gone for Good
TTITLE11=Cheatham, Jeannie and Jimmy - C. C. Rider
TTITLE12=McConnell, Rob and The Boss Brass - The Shuffle Boogie Swamp Groove Bl
TTITLE12=ue
EXTD=
EXTT0=
EXTT1=
EXTT2=
EXTT3=
EXTT4=
EXTT5=
EXTT6=
EXTT7=
EXTT8=
EXTT9=
EXTT10=
EXTT11=
EXTT12=
PLAYORDER=
